<mxfile host="Electron" modified="2024-05-04T15:21:37.468Z" agent="Mozilla/5.0 (Windows NT 10.0; Win64; x64) AppleWebKit/537.36 (KHTML, like Gecko) draw.io/24.2.5 Chrome/120.0.6099.109 Electron/28.1.0 Safari/537.36" etag="mN-7CBKtuGXKwByXco-4" version="24.2.5" type="device">
  <diagram name="Page-1" id="qEpNeB9_9o46CiD1UTSn">
    <mxGraphModel dx="2924" dy="1204" grid="1" gridSize="10" guides="1" tooltips="1" connect="1" arrows="1" fold="1" page="1" pageScale="1" pageWidth="850" pageHeight="1100" math="0" shadow="0">
      <root>
        <mxCell id="0" />
        <mxCell id="1" parent="0" />
        <mxCell id="_LD3zu3mbJz_5M9Ao9E3-1" value="&lt;font style=&quot;font-size: 18px;&quot;&gt;Musician&lt;/font&gt;" style="text;html=1;align=center;verticalAlign=middle;resizable=0;points=[];autosize=1;strokeColor=none;fillColor=none;" vertex="1" parent="1">
          <mxGeometry x="-830" y="260" width="90" height="40" as="geometry" />
        </mxCell>
        <mxCell id="_LD3zu3mbJz_5M9Ao9E3-2" value="&lt;u&gt;id&lt;/u&gt;" style="rounded=0;whiteSpace=wrap;html=1;" vertex="1" parent="1">
          <mxGeometry x="-830" y="307" width="120" height="60" as="geometry" />
        </mxCell>
        <mxCell id="_LD3zu3mbJz_5M9Ao9E3-3" value="name" style="rounded=0;whiteSpace=wrap;html=1;" vertex="1" parent="1">
          <mxGeometry x="-710" y="307" width="120" height="60" as="geometry" />
        </mxCell>
        <mxCell id="_LD3zu3mbJz_5M9Ao9E3-4" value="ph-number" style="rounded=0;whiteSpace=wrap;html=1;" vertex="1" parent="1">
          <mxGeometry x="-590" y="307" width="120" height="60" as="geometry" />
        </mxCell>
        <mxCell id="_LD3zu3mbJz_5M9Ao9E3-5" value="city" style="rounded=0;whiteSpace=wrap;html=1;" vertex="1" parent="1">
          <mxGeometry x="-470" y="307" width="120" height="60" as="geometry" />
        </mxCell>
        <mxCell id="_LD3zu3mbJz_5M9Ao9E3-6" value="street" style="rounded=0;whiteSpace=wrap;html=1;" vertex="1" parent="1">
          <mxGeometry x="-350" y="307" width="120" height="60" as="geometry" />
        </mxCell>
        <mxCell id="_LD3zu3mbJz_5M9Ao9E3-7" value="&lt;font style=&quot;font-size: 18px;&quot;&gt;Album&lt;/font&gt;" style="text;html=1;align=center;verticalAlign=middle;resizable=0;points=[];autosize=1;strokeColor=none;fillColor=none;" vertex="1" parent="1">
          <mxGeometry x="-170" y="260" width="70" height="40" as="geometry" />
        </mxCell>
        <mxCell id="_LD3zu3mbJz_5M9Ao9E3-8" value="&lt;u&gt;id&lt;/u&gt;" style="rounded=0;whiteSpace=wrap;html=1;" vertex="1" parent="1">
          <mxGeometry x="-180" y="307" width="120" height="60" as="geometry" />
        </mxCell>
        <mxCell id="_LD3zu3mbJz_5M9Ao9E3-9" value="title" style="rounded=0;whiteSpace=wrap;html=1;" vertex="1" parent="1">
          <mxGeometry x="-60" y="307" width="120" height="60" as="geometry" />
        </mxCell>
        <mxCell id="_LD3zu3mbJz_5M9Ao9E3-10" value="date" style="rounded=0;whiteSpace=wrap;html=1;" vertex="1" parent="1">
          <mxGeometry x="60" y="307" width="120" height="60" as="geometry" />
        </mxCell>
        <mxCell id="_LD3zu3mbJz_5M9Ao9E3-13" value="&lt;font style=&quot;font-size: 18px;&quot;&gt;Instrument&lt;/font&gt;" style="text;html=1;align=center;verticalAlign=middle;resizable=0;points=[];autosize=1;strokeColor=none;fillColor=none;" vertex="1" parent="1">
          <mxGeometry x="320" y="260" width="110" height="40" as="geometry" />
        </mxCell>
        <mxCell id="_LD3zu3mbJz_5M9Ao9E3-14" value="&lt;u&gt;name&lt;/u&gt;" style="rounded=0;whiteSpace=wrap;html=1;" vertex="1" parent="1">
          <mxGeometry x="330" y="307" width="120" height="60" as="geometry" />
        </mxCell>
        <mxCell id="_LD3zu3mbJz_5M9Ao9E3-15" value="key" style="rounded=0;whiteSpace=wrap;html=1;" vertex="1" parent="1">
          <mxGeometry x="450" y="307" width="120" height="60" as="geometry" />
        </mxCell>
        <mxCell id="_LD3zu3mbJz_5M9Ao9E3-17" value="&lt;font style=&quot;font-size: 18px;&quot;&gt;Song&lt;/font&gt;" style="text;html=1;align=center;verticalAlign=middle;resizable=0;points=[];autosize=1;strokeColor=none;fillColor=none;" vertex="1" parent="1">
          <mxGeometry x="590" y="260" width="70" height="40" as="geometry" />
        </mxCell>
        <mxCell id="_LD3zu3mbJz_5M9Ao9E3-18" value="&lt;u&gt;title&lt;/u&gt;" style="rounded=0;whiteSpace=wrap;html=1;" vertex="1" parent="1">
          <mxGeometry x="590" y="307" width="120" height="60" as="geometry" />
        </mxCell>
        <mxCell id="_LD3zu3mbJz_5M9Ao9E3-19" value="author" style="rounded=0;whiteSpace=wrap;html=1;" vertex="1" parent="1">
          <mxGeometry x="710" y="307" width="120" height="60" as="geometry" />
        </mxCell>
        <mxCell id="_LD3zu3mbJz_5M9Ao9E3-22" style="edgeStyle=orthogonalEdgeStyle;rounded=0;orthogonalLoop=1;jettySize=auto;html=1;entryX=0.45;entryY=0.983;entryDx=0;entryDy=0;entryPerimeter=0;" edge="1" parent="1" source="_LD3zu3mbJz_5M9Ao9E3-20" target="_LD3zu3mbJz_5M9Ao9E3-2">
          <mxGeometry relative="1" as="geometry">
            <mxPoint x="-780" y="440" as="targetPoint" />
            <Array as="points">
              <mxPoint x="240" y="440" />
              <mxPoint x="-776" y="440" />
            </Array>
          </mxGeometry>
        </mxCell>
        <mxCell id="_LD3zu3mbJz_5M9Ao9E3-20" value="musicianID" style="rounded=0;whiteSpace=wrap;html=1;" vertex="1" parent="1">
          <mxGeometry x="180" y="307" width="120" height="60" as="geometry" />
        </mxCell>
        <mxCell id="_LD3zu3mbJz_5M9Ao9E3-21" value="" style="endArrow=none;dashed=1;html=1;dashPattern=1 3;strokeWidth=2;rounded=0;" edge="1" parent="1">
          <mxGeometry width="50" height="50" relative="1" as="geometry">
            <mxPoint x="200" y="350" as="sourcePoint" />
            <mxPoint x="280" y="350" as="targetPoint" />
          </mxGeometry>
        </mxCell>
        <mxCell id="_LD3zu3mbJz_5M9Ao9E3-23" value="&lt;font style=&quot;font-size: 18px;&quot;&gt;Musician_instrument&lt;/font&gt;" style="text;html=1;align=center;verticalAlign=middle;resizable=0;points=[];autosize=1;strokeColor=none;fillColor=none;" vertex="1" parent="1">
          <mxGeometry x="-840" y="540" width="190" height="40" as="geometry" />
        </mxCell>
        <mxCell id="_LD3zu3mbJz_5M9Ao9E3-45" style="edgeStyle=orthogonalEdgeStyle;rounded=0;orthogonalLoop=1;jettySize=auto;html=1;" edge="1" parent="1" source="_LD3zu3mbJz_5M9Ao9E3-24" target="_LD3zu3mbJz_5M9Ao9E3-14">
          <mxGeometry relative="1" as="geometry">
            <mxPoint x="400" y="800" as="targetPoint" />
            <Array as="points">
              <mxPoint x="-730" y="729" />
              <mxPoint x="-719" y="729" />
              <mxPoint x="-719" y="800" />
              <mxPoint x="390" y="800" />
            </Array>
          </mxGeometry>
        </mxCell>
        <mxCell id="_LD3zu3mbJz_5M9Ao9E3-24" value="InstrumentName" style="rounded=0;whiteSpace=wrap;html=1;" vertex="1" parent="1">
          <mxGeometry x="-790" y="587" width="120" height="60" as="geometry" />
        </mxCell>
        <mxCell id="_LD3zu3mbJz_5M9Ao9E3-46" style="edgeStyle=orthogonalEdgeStyle;rounded=0;orthogonalLoop=1;jettySize=auto;html=1;" edge="1" parent="1" source="_LD3zu3mbJz_5M9Ao9E3-25" target="_LD3zu3mbJz_5M9Ao9E3-2">
          <mxGeometry relative="1" as="geometry">
            <mxPoint x="-760" y="400" as="targetPoint" />
            <Array as="points">
              <mxPoint x="-610" y="494" />
              <mxPoint x="-639" y="494" />
              <mxPoint x="-639" y="400" />
              <mxPoint x="-760" y="400" />
            </Array>
          </mxGeometry>
        </mxCell>
        <mxCell id="_LD3zu3mbJz_5M9Ao9E3-25" value="MusicianID" style="rounded=0;whiteSpace=wrap;html=1;" vertex="1" parent="1">
          <mxGeometry x="-670" y="587" width="120" height="60" as="geometry" />
        </mxCell>
        <mxCell id="_LD3zu3mbJz_5M9Ao9E3-28" style="edgeStyle=orthogonalEdgeStyle;rounded=0;orthogonalLoop=1;jettySize=auto;html=1;entryX=0.25;entryY=1;entryDx=0;entryDy=0;" edge="1" parent="1" source="_LD3zu3mbJz_5M9Ao9E3-26" target="_LD3zu3mbJz_5M9Ao9E3-2">
          <mxGeometry relative="1" as="geometry">
            <mxPoint x="-800" y="480" as="targetPoint" />
            <Array as="points">
              <mxPoint x="890" y="429" />
              <mxPoint x="881" y="429" />
              <mxPoint x="881" y="480" />
              <mxPoint x="-800" y="480" />
            </Array>
          </mxGeometry>
        </mxCell>
        <mxCell id="_LD3zu3mbJz_5M9Ao9E3-26" value="musicianID" style="rounded=0;whiteSpace=wrap;html=1;" vertex="1" parent="1">
          <mxGeometry x="830" y="307" width="120" height="60" as="geometry" />
        </mxCell>
        <mxCell id="_LD3zu3mbJz_5M9Ao9E3-27" value="" style="endArrow=none;dashed=1;html=1;dashPattern=1 3;strokeWidth=2;rounded=0;" edge="1" parent="1">
          <mxGeometry width="50" height="50" relative="1" as="geometry">
            <mxPoint x="850" y="350" as="sourcePoint" />
            <mxPoint x="930" y="350" as="targetPoint" />
          </mxGeometry>
        </mxCell>
        <mxCell id="_LD3zu3mbJz_5M9Ao9E3-29" value="&lt;font style=&quot;font-size: 18px;&quot;&gt;Album_Song&lt;/font&gt;" style="text;html=1;align=center;verticalAlign=middle;resizable=0;points=[];autosize=1;strokeColor=none;fillColor=none;" vertex="1" parent="1">
          <mxGeometry x="-425" y="530" width="130" height="40" as="geometry" />
        </mxCell>
        <mxCell id="_LD3zu3mbJz_5M9Ao9E3-36" style="edgeStyle=orthogonalEdgeStyle;rounded=0;orthogonalLoop=1;jettySize=auto;html=1;entryX=0.65;entryY=1.067;entryDx=0;entryDy=0;entryPerimeter=0;" edge="1" parent="1" source="_LD3zu3mbJz_5M9Ao9E3-30" target="_LD3zu3mbJz_5M9Ao9E3-18">
          <mxGeometry relative="1" as="geometry">
            <mxPoint x="690" y="710" as="targetPoint" />
            <Array as="points">
              <mxPoint x="-345" y="710" />
              <mxPoint x="668" y="710" />
            </Array>
          </mxGeometry>
        </mxCell>
        <mxCell id="_LD3zu3mbJz_5M9Ao9E3-30" value="SongTitle" style="rounded=0;whiteSpace=wrap;html=1;" vertex="1" parent="1">
          <mxGeometry x="-405" y="577" width="120" height="60" as="geometry" />
        </mxCell>
        <mxCell id="_LD3zu3mbJz_5M9Ao9E3-37" style="edgeStyle=orthogonalEdgeStyle;rounded=0;orthogonalLoop=1;jettySize=auto;html=1;entryX=0.5;entryY=1;entryDx=0;entryDy=0;" edge="1" parent="1" source="_LD3zu3mbJz_5M9Ao9E3-31" target="_LD3zu3mbJz_5M9Ao9E3-8">
          <mxGeometry relative="1" as="geometry">
            <mxPoint x="-120" y="400" as="targetPoint" />
            <Array as="points">
              <mxPoint x="-230" y="400" />
              <mxPoint x="-120" y="400" />
            </Array>
          </mxGeometry>
        </mxCell>
        <mxCell id="_LD3zu3mbJz_5M9Ao9E3-31" value="AlbumID" style="rounded=0;whiteSpace=wrap;html=1;" vertex="1" parent="1">
          <mxGeometry x="-285" y="577" width="120" height="60" as="geometry" />
        </mxCell>
        <mxCell id="_LD3zu3mbJz_5M9Ao9E3-32" value="" style="endArrow=none;dashed=1;html=1;dashPattern=1 3;strokeWidth=2;rounded=0;" edge="1" parent="1">
          <mxGeometry width="50" height="50" relative="1" as="geometry">
            <mxPoint x="-390" y="620" as="sourcePoint" />
            <mxPoint x="-300" y="620" as="targetPoint" />
          </mxGeometry>
        </mxCell>
        <mxCell id="_LD3zu3mbJz_5M9Ao9E3-33" value="" style="endArrow=none;dashed=1;html=1;dashPattern=1 3;strokeWidth=2;rounded=0;" edge="1" parent="1">
          <mxGeometry width="50" height="50" relative="1" as="geometry">
            <mxPoint x="-270" y="620" as="sourcePoint" />
            <mxPoint x="-180" y="620" as="targetPoint" />
          </mxGeometry>
        </mxCell>
        <mxCell id="_LD3zu3mbJz_5M9Ao9E3-38" value="" style="endArrow=none;html=1;rounded=0;" edge="1" parent="1">
          <mxGeometry width="50" height="50" relative="1" as="geometry">
            <mxPoint x="-385" y="630" as="sourcePoint" />
            <mxPoint x="-305" y="630" as="targetPoint" />
          </mxGeometry>
        </mxCell>
        <mxCell id="_LD3zu3mbJz_5M9Ao9E3-42" value="" style="endArrow=none;dashed=1;html=1;dashPattern=1 3;strokeWidth=2;rounded=0;" edge="1" parent="1">
          <mxGeometry width="50" height="50" relative="1" as="geometry">
            <mxPoint x="-650" y="630" as="sourcePoint" />
            <mxPoint x="-570" y="630" as="targetPoint" />
          </mxGeometry>
        </mxCell>
        <mxCell id="_LD3zu3mbJz_5M9Ao9E3-43" value="" style="endArrow=none;dashed=1;html=1;dashPattern=1 3;strokeWidth=2;rounded=0;" edge="1" parent="1">
          <mxGeometry width="50" height="50" relative="1" as="geometry">
            <mxPoint x="-770" y="630" as="sourcePoint" />
            <mxPoint x="-690" y="630" as="targetPoint" />
          </mxGeometry>
        </mxCell>
        <mxCell id="_LD3zu3mbJz_5M9Ao9E3-44" value="" style="endArrow=none;html=1;rounded=0;" edge="1" parent="1">
          <mxGeometry width="50" height="50" relative="1" as="geometry">
            <mxPoint x="-770" y="637" as="sourcePoint" />
            <mxPoint x="-580" y="637" as="targetPoint" />
          </mxGeometry>
        </mxCell>
      </root>
    </mxGraphModel>
  </diagram>
</mxfile>
